<svg xmlns="http://www.w3.org/2000/svg" xmlns:xlink="http://www.w3.org/1999/xlink" version="1.1" x="0px" y="0px" viewBox="0 0 66 82.5" enable-background="new 0 0 66 66" xml:space="preserve"><g><path d="M64,26.1c-0.6,0-1,0.4-1,1v1.3h-3.6v-13C59.4,7.4,52.9,1,45.1,1H38c-7.9,0-14.3,6.4-14.3,14.3c0,0,0,0,0,0v3H3.6   c-1.4,0-2.6,1.1-2.6,2.6C1,34.6,1,29.5,1,59c0,1.4,1.1,2.6,2.6,2.6h5.2V64c0,0.6,0.4,1,1,1c0.6,0,1-0.4,1-1v-2.4h29.5V64   c0,0.6,0.4,1,1,1c0.6,0,1-0.4,1-1v-2.4h5.2c1.4,0,2.6-1.1,2.6-2.6V44.2h1.8v4.6c0,0.6,0.4,1,1,1c0.6,0,1-0.4,1-1v-1.3H63v1.3   c0,0.6,0.4,1,1,1c0.6,0,1-0.4,1-1V27.1C65,26.5,64.6,26.1,64,26.1z M25.7,15.3C25.7,15.3,25.7,15.3,25.7,15.3C25.7,8.5,31.2,3,38,3   h7.1c6.8,0,12.3,5.5,12.3,12.3v13h-3.6v-1.3c0-0.6-0.4-1-1-1c-0.6,0-1,0.4-1,1v4.6h-1.8c0-0.4,0-10.9,0-10.8c0-1.4-1.1-2.6-2.6-2.6   H25.7V15.3z M24.7,36.3l-2.5-2.5l5.1,0L24.7,36.3z M47.9,24.4H30.7v-1.2c0-0.6-0.4-1-1-1h-4v-1.8h21.7c0.3,0,0.6,0.2,0.6,0.6V24.4z    M28.7,24.1c0,0.7,0,7.8,0,7.6h-8v-7.6C21,24.1,29.2,24.1,28.7,24.1z M18.7,29.5h-9v-3.1h9V29.5z M30.7,26.4h17.2v3.1H30.7V26.4z    M3.6,20.3h20.2v1.8h-4c-0.6,0-1,0.4-1,1v1.2H9.5c-0.4-1.6-1.9-2.8-3.6-2.8H3v-0.7C3,20.6,3.2,20.3,3.6,20.3z M3,23.6h2.9   c1,0,1.7,0.8,1.7,1.7v5.2c0,1-0.8,1.7-1.7,1.7H3V23.6z M28.4,50.6h-6v-6h6V50.6z M32.7,52.6v7H18.2v-7   C22.5,52.6,26.2,52.6,32.7,52.6z M47.9,59c0,0.3-0.2,0.6-0.6,0.6H34.7v-8c0-0.6-0.4-1-1-1h-3.2v-7c0-0.6-0.4-1-1-1h-8   c-0.6,0-1,0.4-1,1v7h-3.2c-0.6,0-1,0.4-1,1v8H3.6C3.2,59.6,3,59.3,3,59V34.3h2.9c1.7,0,3.2-1.2,3.6-2.8h9.2v1.2c0,0,0,0,0,0   c0,0.3,0.1,0.5,0.3,0.7l4.7,4.6v2.8c0,0.6,0.4,1,1,1s1-0.4,1-1v-2.8l4.7-4.6c0.2-0.2,0.3-0.4,0.3-0.7c0,0,0,0,0,0v-1.2h17.2V59z    M49.9,42.2v-8.5h1.8v8.5H49.9z M53.7,45.5c0-4.6,0-10.2,0-15.2H63v15.2H53.7z"/></g><text x="0" y="81" fill="#000000" font-size="5px" font-weight="bold" font-family="'Helvetica Neue', Helvetica, Arial-Unicode, Arial, Sans-serif">Created by ProSymbols</text><text x="0" y="86" fill="#000000" font-size="5px" font-weight="bold" font-family="'Helvetica Neue', Helvetica, Arial-Unicode, Arial, Sans-serif">from the Noun Project</text></svg>