<svg xmlns="http://www.w3.org/2000/svg" xmlns:xlink="http://www.w3.org/1999/xlink" viewBox="0 0 60 75" version="1.1" x="0px" y="0px"><title>007-Hatch</title><desc>Created with Sketch.</desc><g stroke="none" stroke-width="1" fill="none" fill-rule="evenodd"><g fill="#000000"><polygon points="38.5859 48 42.5859 44 11.9999 13.414 11.9999 24.586 35.4139 48"/><polygon points="32.5859 48 11.9999 27.414 11.9999 36.586 23.4139 48"/><polygon points="12 48 20.586 48 12 39.414"/><path d="M10,50 L10,10 L50,10 L50,36.586 L54,32.586 L54,8 L59,8 C59.553,8 60,7.552 60,7 C60,6.448 59.553,6 59,6 L54,6 L54,1 C54,0.448 53.553,0 53,0 C52.447,0 52,0.448 52,1 L52,6 L8,6 L8,1 C8,0.448 7.553,0 7,0 C6.447,0 6,0.448 6,1 L6,6 L1,6 C0.447,6 0,6.448 0,7 C0,7.552 0.447,8 1,8 L6,8 L6,52 L1,52 C0.447,52 0,52.448 0,53 C0,53.552 0.447,54 1,54 L6,54 L6,59 C6,59.552 6.447,60 7,60 C7.553,60 8,59.552 8,59 L8,54 L32.586,54 L36.586,50 L10,50 Z"/><polygon points="48 12 39.284 12 48 21.443"/><polygon points="48 41.4141 41.414 48.0001 48 48.0001"/><path d="M59,52 L54,52 L54,35.414 L50,39.414 L50,50 L39.414,50 L35.414,54 L52,54 L52,59 C52,59.552 52.447,60 53,60 C53.553,60 54,59.552 54,59 L54,54 L59,54 C59.553,54 60,53.552 60,53 C60,52.448 59.553,52 59,52"/><polygon points="48 24.3904 36.563 12.0004 26.414 12.0004 48 33.5864"/><polygon points="48 36.4141 23.586 12.0001 13.414 12.0001 44 42.5861 48 38.5861"/></g></g><text x="0" y="75" fill="#000000" font-size="5px" font-weight="bold" font-family="'Helvetica Neue', Helvetica, Arial-Unicode, Arial, Sans-serif">Created by Smashicons</text><text x="0" y="80" fill="#000000" font-size="5px" font-weight="bold" font-family="'Helvetica Neue', Helvetica, Arial-Unicode, Arial, Sans-serif">from the Noun Project</text></svg>