<svg xmlns="http://www.w3.org/2000/svg" data-name="Layer 3" viewBox="0 0 64 80" x="0px" y="0px"><title>laser-laser cutting machine-machining-plasma-electronics-industry-factory-machine</title><path d="M62,1H2A1,1,0,0,0,1,2V6A1,1,0,0,0,2,7H15.58l5.71,5.71A1,1,0,0,0,22,13h2v3h0V35a1,1,0,0,0,.18.54h0l3.9,5.86,1,3.83A1,1,0,0,0,30,46h1v9h2V46h1a1,1,0,0,0,1-.76l1-3.83,3.9-5.86h0A1,1,0,0,0,40,35V16h0V13h2a1.05,1.05,0,0,0,.71-.29L48.41,7H62a1,1,0,0,0,1-1V2A1,1,0,0,0,62,1ZM16.41,5l-2-2h3.17l2,2ZM13.58,5H10.41l-2-2h3.17Zm8.83,0-2-2h3.17l2,2Zm6,0-2-2h3.17l2,2Zm6,0-2-2h3.17l2,2Zm6,0-2-2h3.17l2,2Zm6,0-2-2h3.17l2,2Zm4-2h3.17l2,2H52.41ZM3,3H5.58l2,2H3ZM31,25h2v3a1,1,0,0,1-2,0Zm2-2H31V17h2Zm-1,8a3,3,0,0,0,3-3V17h3V34H26V17h3V28A3,3,0,0,0,32,31Zm-2.46,9-2.67-4H31v2h2V36h4.13l-2.67,4Zm1.24,4-.5-2h3.44l-.5,2ZM38,15H26V13H38Zm3.58-4H22.41l-4-4H45.58ZM61,5H58.41l-2-2H61Z"/><path d="M30,57H4a3,3,0,0,0,0,6H30a1,1,0,0,0,1-1V58A1,1,0,0,0,30,57Zm-1,4H4a1,1,0,0,1,0-2H29Z"/><path d="M60,57H34a1,1,0,0,0-1,1v4a1,1,0,0,0,1,1H60a3,3,0,0,0,0-6Zm0,4H35V59H60a1,1,0,0,1,0,2Z"/><rect x="34.17" y="52" width="5.66" height="2" transform="translate(-26.64 41.69) rotate(-45)"/><rect x="26" y="50.17" width="2" height="5.66" transform="translate(-29.58 34.64) rotate(-45.03)"/><rect x="19" y="53" width="4" height="2"/><rect x="41" y="53" width="4" height="2"/><text x="0" y="79" fill="#000000" font-size="5px" font-weight="bold" font-family="'Helvetica Neue', Helvetica, Arial-Unicode, Arial, Sans-serif">Created by nareerat jaikaew</text><text x="0" y="84" fill="#000000" font-size="5px" font-weight="bold" font-family="'Helvetica Neue', Helvetica, Arial-Unicode, Arial, Sans-serif">from the Noun Project</text></svg>