<svg xmlns="http://www.w3.org/2000/svg" xmlns:xlink="http://www.w3.org/1999/xlink" viewBox="0 0 68 85" version="1.1" x="0px" y="0px"><title>laser, light, beam, spot, burn, dot</title><desc>Created with Sketch.</desc><g stroke="none" stroke-width="1" fill="none" fill-rule="evenodd"><g transform="translate(-656.000000, -1136.000000)" fill="#000000" fill-rule="nonzero"><path d="M722.505607,1160 C723.47711,1163.16169 724,1166.51978 724,1170 C724,1186.02217 712.917461,1199.45586 698,1203.05348 L698,1167 C698,1165.89543 697.104569,1165 696,1165 C694.895431,1165 694,1165.89543 694,1167 L694,1203.76719 C692.688043,1203.92094 691.353254,1204 690,1204 C671.222319,1204 656,1188.77768 656,1170 C656,1166.51978 656.52289,1163.16169 657.494393,1160 L687,1160 C688.104569,1160 689,1159.10457 689,1158 C689,1156.89543 688.104569,1156 687,1156 L659.006957,1156 C664.342915,1144.2059 676.213162,1136 690,1136 C691.353254,1136 692.688043,1136.07906 694,1136.23281 L694,1149 C694,1150.10457 694.895431,1151 696,1151 C697.104569,1151 698,1150.10457 698,1149 L698,1136.94652 C708.270729,1139.42349 716.72356,1146.56314 720.993043,1156 L705,1156 C703.895431,1156 703,1156.89543 703,1158 C703,1159.10457 703.895431,1160 705,1160 L722.505607,1160 L722.505607,1160 Z M687.585786,1163.58579 L675.585786,1175.58579 C674.804738,1176.36684 674.804738,1177.63316 675.585786,1178.41421 C676.366835,1179.19526 677.633165,1179.19526 678.414214,1178.41421 L690.414214,1166.41421 C691.195262,1165.63316 691.195262,1164.36684 690.414214,1163.58579 C689.633165,1162.80474 688.366835,1162.80474 687.585786,1163.58579 Z M704.414214,1152.41421 L706.414214,1150.41421 C707.195262,1149.63316 707.195262,1148.36684 706.414214,1147.58579 C705.633165,1146.80474 704.366835,1146.80474 703.585786,1147.58579 L701.585786,1149.58579 C700.804738,1150.36684 700.804738,1151.63316 701.585786,1152.41421 C702.366835,1153.19526 703.633165,1153.19526 704.414214,1152.41421 Z M690.414214,1149.58579 L685.914214,1145.08579 C685.133165,1144.30474 683.866835,1144.30474 683.085786,1145.08579 C682.304738,1145.86684 682.304738,1147.13316 683.085786,1147.91421 L687.585786,1152.41421 C688.366835,1153.19526 689.633165,1153.19526 690.414214,1152.41421 C691.195262,1151.63316 691.195262,1150.36684 690.414214,1149.58579 Z M701.585786,1166.41421 L708.085786,1172.91421 C708.866835,1173.69526 710.133165,1173.69526 710.914214,1172.91421 C711.695262,1172.13316 711.695262,1170.86684 710.914214,1170.08579 L704.414214,1163.58579 C703.633165,1162.80474 702.366835,1162.80474 701.585786,1163.58579 C700.804738,1164.36684 700.804738,1165.63316 701.585786,1166.41421 Z M696,1161 C697.656854,1161 699,1159.65685 699,1158 C699,1156.34315 697.656854,1155 696,1155 C694.343146,1155 693,1156.34315 693,1158 C693,1159.65685 694.343146,1161 696,1161 Z"/></g></g><text x="0" y="83" fill="#000000" font-size="5px" font-weight="bold" font-family="'Helvetica Neue', Helvetica, Arial-Unicode, Arial, Sans-serif">Created by Andrejs Kirma</text><text x="0" y="88" fill="#000000" font-size="5px" font-weight="bold" font-family="'Helvetica Neue', Helvetica, Arial-Unicode, Arial, Sans-serif">from the Noun Project</text></svg>