<?xml version="1.0" encoding="UTF-8" standalone="no"?>
<!-- Created with Inkscape (http://www.inkscape.org/) -->

<svg
   width="81mm"
   height="61mm"
   viewBox="0 0 81 61"
   version="1.1"
   id="svg2458"
   inkscape:version="1.2.1 (9c6d41e410, 2022-07-14)"
   sodipodi:docname="MeltPoolKeyhole.svg"
   xmlns:inkscape="http://www.inkscape.org/namespaces/inkscape"
   xmlns:sodipodi="http://sodipodi.sourceforge.net/DTD/sodipodi-0.dtd"
   xmlns:xlink="http://www.w3.org/1999/xlink"
   xmlns="http://www.w3.org/2000/svg"
   xmlns:svg="http://www.w3.org/2000/svg">
  <sodipodi:namedview
     id="namedview2460"
     pagecolor="#ffffff"
     bordercolor="#000000"
     borderopacity="0.25"
     inkscape:showpageshadow="2"
     inkscape:pageopacity="0.0"
     inkscape:pagecheckerboard="0"
     inkscape:deskcolor="#d1d1d1"
     inkscape:document-units="mm"
     showgrid="false"
     inkscape:zoom="0.52221045"
     inkscape:cx="420.32862"
     inkscape:cy="421.28609"
     inkscape:window-width="1920"
     inkscape:window-height="1009"
     inkscape:window-x="1912"
     inkscape:window-y="-8"
     inkscape:window-maximized="1"
     inkscape:current-layer="layer1" />
  <defs
     id="defs2455">
    <marker
       style="overflow:visible"
       id="marker6402"
       refX="0"
       refY="0"
       orient="auto-start-reverse"
       inkscape:stockid="Arrow2"
       markerWidth="4.6999998"
       markerHeight="3.4181819"
       viewBox="0 0 7.7 5.6"
       inkscape:isstock="true"
       inkscape:collect="always"
       preserveAspectRatio="xMidYMid">
      <path
         transform="scale(0.7)"
         d="M -2,-4 9,0 -2,4 c 2,-2.33 2,-5.66 0,-8 z"
         style="fill:context-stroke;fill-rule:evenodd;stroke:none"
         id="path6400" />
    </marker>
    <marker
       style="overflow:visible"
       id="Arrow2"
       refX="0"
       refY="0"
       orient="auto-start-reverse"
       inkscape:stockid="Arrow2"
       markerWidth="5.6999998"
       markerHeight="4.1454544"
       viewBox="0 0 7.7 5.6"
       inkscape:isstock="true"
       inkscape:collect="always"
       preserveAspectRatio="xMidYMid">
      <path
         transform="scale(0.7)"
         d="M -2,-4 9,0 -2,4 c 2,-2.33 2,-5.66 0,-8 z"
         style="fill:context-stroke;fill-rule:evenodd;stroke:none"
         id="arrow2L" />
    </marker>
    <linearGradient
       inkscape:collect="always"
       id="linearGradient3419">
      <stop
         style="stop-color:#ffa5a5;stop-opacity:1;"
         offset="0"
         id="stop3415" />
      <stop
         style="stop-color:#fe8989;stop-opacity:0;"
         offset="1"
         id="stop3417" />
    </linearGradient>
    <linearGradient
       inkscape:collect="always"
       xlink:href="#linearGradient3419"
       id="linearGradient3421"
       x1="120.33183"
       y1="64.852516"
       x2="120.20517"
       y2="90.438873"
       gradientUnits="userSpaceOnUse" />
  </defs>
  <g
     inkscape:label="Layer 1"
     inkscape:groupmode="layer"
     id="layer1">
    <g
       id="g6795"
       inkscape:export-filename="Keyhole.png"
       inkscape:export-xdpi="96"
       inkscape:export-ydpi="96"
       transform="translate(-66.372507,-55.225979)">
      <rect
         style="fill:url(#linearGradient3421);fill-opacity:1;stroke:none;stroke-width:1;stroke-dasharray:none"
         id="rect3236"
         width="10.893197"
         height="31.9196"
         x="114.37857"
         y="59.405926" />
      <path
         id="path2582"
         style="fill:#800000;stroke:none;stroke-width:3"
         d="m 66.960447,78.58626 5.296713,-0.126665 h 6.784604 6.784605 6.784604 6.784605 6.784602 c 0,0 3.81625,-1.709179 6.78461,0 1.48418,0.85459 1.34168,4.505381 2.53912,7.43128 1.19744,2.925899 3.73481,5.126905 6.01879,5.108564 4.56796,-0.03668 2.07479,-10.817459 5.0113,-12.539844 2.93651,-1.722385 6.7846,0 6.7846,0 h 6.78461 6.7846 v 36.542825 l -79.674033,-0.12667 z"
         sodipodi:nodetypes="cccccccssszcccccc" />
      <path
         id="path2584"
         style="fill:#800080;stroke:none;stroke-width:1;stroke-dasharray:none"
         d="m 67.087112,78.58626 11.954652,-0.126665 c 0,0 4.504767,-0.419076 6.784605,0 2.279838,0.419076 4.523069,1.519981 6.657939,2.533302 2.13487,1.01332 4.143075,2.153306 6.91127,3.166627 2.768192,1.013321 5.156392,2.026641 7.671262,3.166627 2.51486,1.139986 2.16959,0.824123 5.51795,2.406637 1.54841,0.731816 1.05367,0.424674 3.93244,1.731351 3.09742,1.405918 3.7432,0.877168 5.51213,1.055281 3.42276,0.344638 4.35476,-7.144171 5.89796,-10.133207 1.54319,-2.989036 3.25906,-3.232441 5.39128,-3.926618 2.13222,-0.694177 6.78461,0 6.78461,0 h 6.7846 V 115.00242 H 67.087112 Z"
         sodipodi:nodetypes="cczzzzssszzccccc" />
      <path
         id="path6220"
         style="fill:#4d4d4d;stroke:none;stroke-width:1;stroke-dasharray:none"
         d="m 66.960447,78.58626 11.954652,-0.126665 c 0,0 4.378102,1.4809 6.65794,1.899976 2.279838,0.419076 4.523069,1.899977 6.657939,2.913297 2.13487,1.01332 3.889745,1.899979 6.65794,2.913299 2.768182,1.01332 5.156382,2.1533 7.671252,3.29329 2.51486,1.13999 2.54959,0.824126 5.89795,2.406636 1.54841,0.73182 1.05367,0.55134 4.8191,1.478024 3.30301,0.812882 3.71851,0.913447 5.38546,0.295285 3.16943,-1.175335 5.87474,-6.384174 6.78462,-9.879875 0.90987,-3.4957 3.13239,-4.372425 5.26461,-5.066602 2.13222,-0.694177 5.26463,-0.25333 5.26463,-0.25333 h 6.7846 V 115.00242 H 66.960447 Z"
         sodipodi:nodetypes="cczzzzssszzccccc" />
      <text
         xml:space="preserve"
         style="font-weight:300;font-size:4.23333px;font-family:Calibri;-inkscape-font-specification:'Calibri Light';text-align:center;text-anchor:middle;fill:#800000;stroke:none;stroke-width:1;stroke-dasharray:none"
         x="104.75204"
         y="82.712303"
         id="text3003"><tspan
           sodipodi:role="line"
           id="tspan3001"
           style="font-style:normal;font-variant:normal;font-weight:bold;font-stretch:normal;font-size:4.23333px;font-family:Calibri;-inkscape-font-specification:'Calibri Bold';fill:#ffffff;stroke-width:1"
           x="104.75204"
           y="82.712303">Melt Pool</tspan></text>
      <text
         xml:space="preserve"
         style="font-weight:300;font-size:4.23333px;font-family:Calibri;-inkscape-font-specification:'Calibri Light';text-align:center;text-anchor:middle;fill:#800000;stroke:none;stroke-width:1;stroke-dasharray:none"
         x="-83.25238"
         y="122.32745"
         id="text3003-6"
         transform="rotate(-90)"><tspan
           sodipodi:role="line"
           id="tspan3001-3"
           style="font-style:normal;font-variant:normal;font-weight:bold;font-stretch:normal;font-size:4.23333px;font-family:Calibri;-inkscape-font-specification:'Calibri Bold';fill:#000000;stroke-width:1"
           x="-83.25238"
           y="122.32745">Keyhole</tspan></text>
      <text
         xml:space="preserve"
         style="font-style:normal;font-variant:normal;font-weight:bold;font-stretch:normal;font-size:4.23333px;font-family:Calibri;-inkscape-font-specification:'Calibri Bold';text-align:center;text-anchor:middle;fill:#000000;fill-opacity:1;stroke:none;stroke-width:1;stroke-dasharray:none"
         x="119.69852"
         y="58.392605"
         id="text3587"><tspan
           sodipodi:role="line"
           id="tspan3585"
           style="stroke-width:1"
           x="119.69852"
           y="58.392605">Laser</tspan></text>
      <path
         style="fill:#000000;fill-opacity:1;stroke:#000000;stroke-width:1;stroke-dasharray:none;stroke-opacity:1;marker-end:url(#Arrow2)"
         d="m 92.465512,74.859065 8.106558,10e-7"
         id="path3589"
         sodipodi:nodetypes="cc" />
      <text
         xml:space="preserve"
         style="font-style:normal;font-variant:normal;font-weight:bold;font-stretch:normal;font-size:4.23333px;font-family:Calibri;-inkscape-font-specification:'Calibri Bold';text-align:center;text-anchor:middle;fill:#000000;fill-opacity:1;stroke:none;stroke-width:1;stroke-dasharray:none"
         x="99.052101"
         y="65.865845"
         id="text3842"><tspan
           sodipodi:role="line"
           style="stroke-width:1"
           x="99.052101"
           y="65.865845"
           id="tspan6328">Laser Scan </tspan><tspan
           sodipodi:role="line"
           style="stroke-width:1"
           x="99.052101"
           y="71.157509"
           id="tspan6334">Direction</tspan></text>
      <text
         xml:space="preserve"
         style="font-style:normal;font-variant:normal;font-weight:bold;font-stretch:normal;font-size:4.23333px;font-family:Calibri;-inkscape-font-specification:'Calibri Bold';text-align:center;text-anchor:middle;fill:#000000;fill-opacity:1;stroke:none;stroke-width:1;stroke-dasharray:none"
         x="77.392372"
         y="73.465744"
         id="text6340"><tspan
           sodipodi:role="line"
           style="stroke-width:1"
           x="77.392372"
           y="73.465744"
           id="tspan6338">Musy Zone</tspan></text>
      <path
         style="fill:#800080;fill-opacity:1;stroke:#000000;stroke-width:0.8;stroke-dasharray:none;stroke-opacity:1;marker-end:url(#marker6402)"
         d="m 78.659017,75.23906 9.246553,4.59161"
         id="path6398"
         sodipodi:nodetypes="cc" />
      <text
         xml:space="preserve"
         style="font-style:normal;font-variant:normal;font-weight:bold;font-stretch:normal;font-size:4.23333px;font-family:Calibri;-inkscape-font-specification:'Calibri Bold';text-align:center;text-anchor:middle;fill:#ffffff;fill-opacity:1;stroke:none;stroke-width:1;stroke-dasharray:none"
         x="73.272346"
         y="113.0538"
         id="text6670"><tspan
           sodipodi:role="line"
           style="fill:#ffffff;stroke-width:1"
           x="73.272346"
           y="113.0538"
           id="tspan6668">Solid</tspan></text>
    </g>
  </g>
</svg>
