<svg xmlns="http://www.w3.org/2000/svg" xmlns:xlink="http://www.w3.org/1999/xlink" version="1.1" x="0px" y="0px" viewBox="0 0 100 125" enable-background="new 0 0 100 100" xml:space="preserve"><path d="M40.596,32.795c0-1.055,0.854-1.912,1.912-1.912c1.055,0,1.909,0.857,1.909,1.912s-0.854,1.912-1.909,1.912l0,0  C41.45,34.707,40.596,33.85,40.596,32.795z"/><circle cx="42.506" cy="41.277" r="1.911"/><circle cx="49.769" cy="28.972" r="1.912"/><path d="M47.857,20.563c0-1.055,0.857-1.909,1.912-1.909s1.911,0.854,1.911,1.909c0,1.057-0.856,1.912-1.911,1.912  S47.857,21.62,47.857,20.563c0-0.004,0-0.009,0-0.011V20.563z"/><path d="M47.857,37.467c0-1.057,0.857-1.912,1.912-1.912s1.911,0.854,1.911,1.912c0,1.055-0.856,1.912-1.911,1.912  S47.857,38.521,47.857,37.467c0-0.004,0-0.009,0-0.011V37.467z"/><path d="M57.179,55.557c-4.076-3.955-10.723-3.931-14.771,0.053L16.25,81.346h67.5L57.179,55.557z M36.75,75.08  c-0.746,0.747-1.955,0.747-2.702,0s-0.747-1.958-0.002-2.703h0.002c0.745-0.747,1.956-0.747,2.702,0  C37.498,73.122,37.498,74.333,36.75,75.08z M42.749,69.081c-0.747,0.747-1.958,0.747-2.705,0c-0.747-0.745-0.747-1.954,0-2.701  c0,0,0,0,0-0.002c0.747-0.745,1.958-0.745,2.705,0C43.494,67.125,43.494,68.336,42.749,69.081z M48.701,75.073  c-0.744,0.745-1.953,0.745-2.7,0c-0.747-0.747-0.747-1.958-0.002-2.702c0.002-0.002,0.002-0.002,0.002-0.002  c0.743-0.75,1.951-0.753,2.7-0.009v0.009C49.448,73.115,49.448,74.326,48.701,75.073z M48.701,63.126  c-0.744,0.747-1.953,0.747-2.7,0c-0.747-0.745-0.747-1.956-0.002-2.703c0.002,0,0.002,0,0.002,0c0.747-0.745,1.958-0.743,2.7,0.004  v-0.004C49.448,61.171,49.448,62.381,48.701,63.126z M54.7,69.075c-0.747,0.747-1.956,0.747-2.7,0c-0.003,0-0.003,0-0.003,0  c-0.749-0.743-0.756-1.954-0.011-2.705c0.004-0.002,0.007-0.004,0.011-0.009v0.011c0.747-0.745,1.956-0.745,2.703-0.002  C55.447,67.117,55.447,68.328,54.7,69.075z"/><text x="0" y="115" fill="#000000" font-size="5px" font-weight="bold" font-family="'Helvetica Neue', Helvetica, Arial-Unicode, Arial, Sans-serif">Created by eris kusnadi</text><text x="0" y="120" fill="#000000" font-size="5px" font-weight="bold" font-family="'Helvetica Neue', Helvetica, Arial-Unicode, Arial, Sans-serif">from the Noun Project</text></svg>